# xmcd
#
# Track frame offsets:
#	150
#	12275
#	23125
#	38852
#	49439
#	60694
#	72859
#	79883
#	97783
#	109871
#	122667
#	135230
#	147992
#	161663
#	175375
#	184336
#	195520
#	209025
#	221925
#	235800
#
# Disc length: 3325 seconds
#
# Revision: 0
# Processed by: cddbd v1.5.2PL0 Copyright (c) Steve Scherf et al.
# Submitted via: EasyCDDAExtractor 11.1.0.1
#
DISCID=270cfb14
DTITLE=Various Artist - High noon
DYEAR=2008
DGENRE=country
TTITLE0=Frankie Laine - High noon
TTITLE1=Johnny Cash - I heard that lonesome whistle blow
TTITLE2=Jimmie Rodgers - Blue yodel
TTITLE3=Patsy Cline - Stop look and listen
TTITLE4=Bob Wills and his Texas Playboys - Silver dew on the bluegrass tonight
TTITLE5=Tex Ritter - You two timed me one time too often
TTITLE6=Willie Nelson - Luckenback Texas
TTITLE7=The osmonds - If every man had a woman like you
TTITLE8=Marty Robbins - I'll gon on alone
TTITLE9=Spade Cooley - Shame on you
TTITLE10=Jimmy Wakely - One has my name
TTITLE11=Bob Wills and his Texas Playboys - Stars and stripes on Iwo Jima
TTITLE12=Red Foley and the Dixie Dons - Birmingham Bounce
TTITLE13=Dick Thomas - Sioux city Sue
TTITLE14=Johnny Cash - Remember me
TTITLE15=Hank Williams - Crazy heart
TTITLE16=Kitty Wells and the Tennessee Mountain Boys - Death at the bar
TTITLE17=Bill Monroe and his Bluegrass Boys - That home above
TTITLE18=Ernie Ford - Mule train
TTITLE19=Ernest Tubb and Red Foley - Goodnight Irene
EXTD=
EXTT0=
EXTT1=
EXTT2=
EXTT3=
EXTT4=
EXTT5=
EXTT6=
EXTT7=
EXTT8=
EXTT9=
EXTT10=
EXTT11=
EXTT12=
EXTT13=
EXTT14=
EXTT15=
EXTT16=
EXTT17=
EXTT18=
EXTT19=
PLAYORDER=
